<svg width="92" height="263" viewBox="0 0 92 263" fill="none" xmlns="http://www.w3.org/2000/svg">
<g filter="url(#filter0_d)">
<path d="M78.88 240.48C81.376 240.48 83.392 241.152 84.928 242.496C86.464 243.84 87.232 245.664 87.232 247.968C87.232 250.08 86.464 251.712 84.928 252.864C83.584 254.208 81.568 254.88 78.88 254.88H59.872C51.232 254.88 44.704 252.576 40.288 247.968C35.872 243.36 33.664 236.736 33.664 228.096V158.112C33.664 150.24 32.032 144.48 28.768 140.832C25.696 137.184 20.224 135.168 12.352 134.784C6.784 134.208 4 131.712 4 127.296C4 125.376 4.672 123.744 6.016 122.4C7.552 121.056 9.664 120.288 12.352 120.096C20.224 119.52 25.696 117.408 28.768 113.76C32.032 110.112 33.664 104.352 33.664 96.48V26.784C33.664 18.144 35.872 11.52 40.288 6.912C44.704 2.304 51.232 0 59.872 0H78.88C81.568 0 83.584 0.672005 84.928 2.01601C86.464 3.16801 87.232 4.8 87.232 6.912C87.232 9.216 86.464 11.04 84.928 12.384C83.392 13.728 81.376 14.4 78.88 14.4H63.616C55.168 14.4 50.944 18.816 50.944 27.648V98.208C50.944 106.464 48.928 113.088 44.896 118.08C41.056 122.88 36.256 125.952 30.496 127.296C36.256 128.64 41.056 131.808 44.896 136.8C48.928 141.6 50.944 148.128 50.944 156.384V227.232C50.944 236.064 55.168 240.48 63.616 240.48H78.88Z" fill="#DBEAF7"/>
</g>
<defs>
<filter id="filter0_d" x="0" y="0" width="91.232" height="262.88" filterUnits="userSpaceOnUse" color-interpolation-filters="sRGB">
<feFlood flood-opacity="0" result="BackgroundImageFix"/>
<feColorMatrix in="SourceAlpha" type="matrix" values="0 0 0 0 0 0 0 0 0 0 0 0 0 0 0 0 0 0 127 0"/>
<feOffset dy="4"/>
<feGaussianBlur stdDeviation="2"/>
<feColorMatrix type="matrix" values="0 0 0 0 0 0 0 0 0 0 0 0 0 0 0 0 0 0 0.25 0"/>
<feBlend mode="normal" in2="BackgroundImageFix" result="effect1_dropShadow"/>
<feBlend mode="normal" in="SourceGraphic" in2="effect1_dropShadow" result="shape"/>
</filter>
</defs>
</svg>
