<svg width="91" height="263" viewBox="0 0 91 263" fill="none" xmlns="http://www.w3.org/2000/svg">
<g filter="url(#filter0_d)">
<path d="M78.592 120.096C84.16 120.288 86.944 122.688 86.944 127.296C86.944 131.712 84.16 134.208 78.592 134.784C70.912 135.168 65.536 137.184 62.464 140.832C59.584 144.288 58.144 150.048 58.144 158.112L57.568 228.096C57.568 236.736 55.36 243.36 50.944 247.968C46.528 252.576 40 254.88 31.36 254.88H12.352C9.664 254.88 7.552 254.208 6.016 252.864C4.672 251.712 4 250.08 4 247.968C4 245.664 4.768 243.84 6.304 242.496C7.84 241.152 9.856 240.48 12.352 240.48H27.616C36.064 240.48 40.288 236.064 40.288 227.232V156.384C40.288 148.128 42.208 141.6 46.048 136.8C50.08 131.808 54.88 128.64 60.448 127.296C54.88 125.952 50.08 122.88 46.048 118.08C42.208 113.088 40.288 106.464 40.288 98.208V27.648C40.288 18.816 36.064 14.4 27.616 14.4H12.352C9.856 14.4 7.84 13.728 6.304 12.384C4.768 11.04 4 9.216 4 6.912C4 4.8 4.672 3.16801 6.016 2.01601C7.552 0.672005 9.664 0 12.352 0H31.36C40 0 46.528 2.304 50.944 6.912C55.36 11.52 57.568 18.144 57.568 26.784V96.48C57.568 104.352 59.104 110.112 62.176 113.76C65.248 117.408 70.72 119.52 78.592 120.096Z" fill="#DBEAF7"/>
</g>
<defs>
<filter id="filter0_d" x="0" y="0" width="90.944" height="262.88" filterUnits="userSpaceOnUse" color-interpolation-filters="sRGB">
<feFlood flood-opacity="0" result="BackgroundImageFix"/>
<feColorMatrix in="SourceAlpha" type="matrix" values="0 0 0 0 0 0 0 0 0 0 0 0 0 0 0 0 0 0 127 0"/>
<feOffset dy="4"/>
<feGaussianBlur stdDeviation="2"/>
<feColorMatrix type="matrix" values="0 0 0 0 0 0 0 0 0 0 0 0 0 0 0 0 0 0 0.25 0"/>
<feBlend mode="normal" in2="BackgroundImageFix" result="effect1_dropShadow"/>
<feBlend mode="normal" in="SourceGraphic" in2="effect1_dropShadow" result="shape"/>
</filter>
</defs>
</svg>
